<svg width="20" height="20" viewBox="0 0 20 20" fill="none" xmlns="http://www.w3.org/2000/svg">
<path d="M9.50813 0.101074C9.82063 -0.0336914 10.18 -0.0336914 10.4925 0.101074L19.2427 3.85119C19.7896 4.08595 20.0942 4.67189 19.9732 5.25001C19.856 5.83205 19.3442 6.21486 18.7153 6.25001V6.56251C18.7153 7.08204 18.3325 7.50001 17.7778 7.50001H2.15253C1.66971 7.50001 1.21502 7.08204 1.21502 6.56251V6.25001C0.656803 6.21486 0.144997 5.83205 0.0256587 5.25001C-0.0936793 4.67189 0.212224 4.08595 0.757586 3.85119L9.50813 0.101074ZM10.0003 5.00001C10.6917 5.00001 11.2503 4.44142 11.2503 3.75002C11.2503 3.05978 10.6917 2.50002 10.0003 2.50002C9.30891 2.50002 8.7503 3.05978 8.7503 3.75002C8.7503 4.44142 9.30891 5.00001 10.0003 5.00001ZM4.96508 16.25H6.52761V8.75001H9.02765V16.25H10.9378V8.75001H13.4379V16.25H15.0004V8.75001H17.5005V16.418C17.5239 16.4297 17.5473 16.4102 17.5708 16.4609L19.4458 17.7109C19.9028 18.0156 20.106 18.5859 19.9458 19.1133C19.7857 19.6406 19.3013 20 18.7505 20H1.21502C0.699381 20 0.213357 19.6406 0.0537452 19.1133C-0.105906 18.5859 0.0983944 18.0156 0.556801 17.7109L2.43183 16.4609C2.4541 16.4102 2.47715 16.4297 2.46504 16.418V8.75001H4.96508V16.25Z" fill="white"/>
</svg>
