<svg width="20" height="22" viewBox="0 0 20 22" fill="none" xmlns="http://www.w3.org/2000/svg">
<path d="M13.25 0.999816C13.4312 0.999823 13.6063 1.06546 13.7429 1.18458C13.8795 1.30371 13.9683 1.46826 13.993 1.64782L14 1.74982L13.999 2.49882H14.749C15.3457 2.49882 15.918 2.73587 16.3399 3.15783C16.7619 3.57978 16.999 4.15208 16.999 4.74882V10.3358C16.2507 9.98016 15.4005 9.90148 14.5997 10.1138C13.7988 10.3261 13.0993 10.8156 12.6254 11.4952C12.1516 12.1748 11.9342 13.0005 12.0119 13.8253C12.0897 14.6502 12.4575 15.4207 13.05 15.9998H12.772C12.4079 15.9998 12.0475 16.0715 11.7112 16.2108C11.3748 16.3501 11.0693 16.5543 10.8119 16.8117C10.5544 17.0691 10.3503 17.3747 10.211 17.711C10.0717 18.0473 9.99995 18.4078 9.99995 18.7718V18.8748C9.99995 19.6158 10.215 20.3578 10.668 21.0048H2.75295C2.15622 21.0048 1.58392 20.7678 1.16196 20.3458C0.740006 19.9238 0.502953 19.3516 0.502953 18.7548L0.501953 4.74982C0.501953 4.15308 0.739006 3.58078 1.16096 3.15883C1.58292 2.73687 2.15522 2.49982 2.75195 2.49982L3.49895 2.49882V1.74982C3.49701 1.55844 3.5683 1.37356 3.69822 1.23303C3.82815 1.09251 4.00689 1.00697 4.19783 0.993931C4.38877 0.980894 4.57747 1.04135 4.72529 1.16291C4.87311 1.28447 4.96887 1.45795 4.99295 1.64782L4.99995 1.74982L4.99895 2.49882H7.99995V1.74982C7.99801 1.55844 8.0693 1.37356 8.19922 1.23303C8.32915 1.09251 8.50789 1.00697 8.69883 0.993931C8.88977 0.980894 9.07847 1.04135 9.22629 1.16291C9.37411 1.28447 9.46987 1.45795 9.49395 1.64782L9.50095 1.74982L9.49995 2.49882H12.498V1.74982C12.498 1.5509 12.577 1.36014 12.7176 1.21949C12.8583 1.07883 13.049 0.999816 13.248 0.999816H13.25ZM8.24795 14.9998H4.24995L4.14795 15.0068C3.96844 15.0315 3.80394 15.1204 3.68486 15.257C3.56579 15.3935 3.50018 15.5686 3.50018 15.7498C3.50018 15.931 3.56579 16.1061 3.68486 16.2427C3.80394 16.3793 3.96844 16.4681 4.14795 16.4928L4.24995 16.4998H8.24795L8.34995 16.4928C8.52947 16.4681 8.69396 16.3793 8.81304 16.2427C8.93212 16.1061 8.99772 15.931 8.99772 15.7498C8.99772 15.5686 8.93212 15.3935 8.81304 15.257C8.69396 15.1204 8.52947 15.0315 8.34995 15.0068L8.24795 14.9998ZM13.248 6.99982H4.24995L4.14795 7.00682C3.96844 7.03151 3.80394 7.12037 3.68486 7.25695C3.56579 7.39354 3.50018 7.56861 3.50018 7.74982C3.50018 7.93102 3.56579 8.10609 3.68486 8.24268C3.80394 8.37926 3.96844 8.46812 4.14795 8.49282L4.24995 8.49982H13.248L13.35 8.49282C13.5295 8.46812 13.694 8.37926 13.813 8.24268C13.9321 8.10609 13.9977 7.93102 13.9977 7.74982C13.9977 7.56861 13.9321 7.39354 13.813 7.25695C13.694 7.12037 13.5295 7.03151 13.35 7.00682L13.248 6.99982ZM3.49995 11.7498C3.49995 12.1638 3.83595 12.4998 4.24995 12.4998H10.25C10.4489 12.4998 10.6396 12.4208 10.7803 12.2801C10.9209 12.1395 11 11.9487 11 11.7498C11 11.5509 10.9209 11.3601 10.7803 11.2195C10.6396 11.0788 10.4489 10.9998 10.25 10.9998H4.24995C4.05104 10.9998 3.86028 11.0788 3.71962 11.2195C3.57897 11.3601 3.49995 11.5509 3.49995 11.7498ZM18 13.4998C18 14.1629 17.7366 14.7987 17.2677 15.2676C16.7989 15.7364 16.163 15.9998 15.5 15.9998C14.8369 15.9998 14.201 15.7364 13.7322 15.2676C13.2633 14.7987 13 14.1629 13 13.4998C13 12.8368 13.2633 12.2009 13.7322 11.732C14.201 11.2632 14.8369 10.9998 15.5 10.9998C16.163 10.9998 16.7989 11.2632 17.2677 11.732C17.7366 12.2009 18 12.8368 18 13.4998ZM20 18.8748C20 20.4308 18.714 21.9998 15.5 21.9998C12.286 21.9998 11 20.4368 11 18.8748V18.7718C11 17.7918 11.794 16.9998 12.773 16.9998H18.227C19.207 16.9998 20 17.7928 20 18.7718V18.8748Z" fill="#575F6E"/>
</svg>
