<svg width="20" height="22" viewBox="0 0 20 22" fill="none" xmlns="http://www.w3.org/2000/svg">
<path d="M13.2519 0.999816C13.4331 0.999823 13.6082 1.06546 13.7448 1.18458C13.8814 1.30371 13.9703 1.46826 13.9949 1.64782L14.0019 1.74982L14.0009 2.49882H14.7509C15.3476 2.49882 15.9199 2.73587 16.3419 3.15783C16.7639 3.57978 17.0009 4.15208 17.0009 4.74882V10.3358C16.2526 9.98016 15.4024 9.90148 14.6016 10.1138C13.8008 10.3261 13.1012 10.8156 12.6274 11.4952C12.1535 12.1748 11.9361 13.0005 12.0139 13.8253C12.0916 14.6502 12.4594 15.4207 13.0519 15.9998H12.7739C12.4099 15.9998 12.0494 16.0715 11.7131 16.2108C11.3768 16.3501 11.0712 16.5543 10.8138 16.8117C10.5564 17.0691 10.3522 17.3747 10.2129 17.711C10.0736 18.0473 10.0019 18.4078 10.0019 18.7718V18.8748C10.0019 19.6158 10.2169 20.3578 10.6699 21.0048H2.75491C2.15817 21.0048 1.58587 20.7678 1.16392 20.3458C0.741959 19.9238 0.504906 19.3516 0.504906 18.7548L0.503906 4.74982C0.503906 4.15308 0.740959 3.58078 1.16292 3.15883C1.58487 2.73687 2.15717 2.49982 2.75391 2.49982L3.50091 2.49882V1.74982C3.49896 1.55844 3.57025 1.37356 3.70018 1.23303C3.83011 1.09251 4.00884 1.00697 4.19978 0.993931C4.39072 0.980894 4.57942 1.04135 4.72725 1.16291C4.87507 1.28447 4.97082 1.45795 4.99491 1.64782L5.00191 1.74982L5.00091 2.49882H8.00191V1.74982C7.99996 1.55844 8.07125 1.37356 8.20118 1.23303C8.33111 1.09251 8.50984 1.00697 8.70078 0.993931C8.89172 0.980894 9.08043 1.04135 9.22825 1.16291C9.37607 1.28447 9.47182 1.45795 9.49591 1.64782L9.50291 1.74982L9.50191 2.49882H12.4999V1.74982C12.4999 1.5509 12.5789 1.36014 12.7196 1.21949C12.8602 1.07883 13.051 0.999816 13.2499 0.999816H13.2519ZM8.24991 14.9998H4.25191L4.14991 15.0068C3.97039 15.0315 3.80589 15.1204 3.68682 15.257C3.56774 15.3935 3.50214 15.5686 3.50214 15.7498C3.50214 15.931 3.56774 16.1061 3.68682 16.2427C3.80589 16.3793 3.97039 16.4681 4.14991 16.4928L4.25191 16.4998H8.24991L8.35191 16.4928C8.53142 16.4681 8.69592 16.3793 8.815 16.2427C8.93407 16.1061 8.99968 15.931 8.99968 15.7498C8.99968 15.5686 8.93407 15.3935 8.815 15.257C8.69592 15.1204 8.53142 15.0315 8.35191 15.0068L8.24991 14.9998ZM13.2499 6.99982H4.25191L4.14991 7.00682C3.97039 7.03151 3.80589 7.12037 3.68682 7.25695C3.56774 7.39354 3.50214 7.56861 3.50214 7.74982C3.50214 7.93102 3.56774 8.10609 3.68682 8.24268C3.80589 8.37926 3.97039 8.46812 4.14991 8.49282L4.25191 8.49982H13.2499L13.3519 8.49282C13.5314 8.46812 13.6959 8.37926 13.815 8.24268C13.9341 8.10609 13.9997 7.93102 13.9997 7.74982C13.9997 7.56861 13.9341 7.39354 13.815 7.25695C13.6959 7.12037 13.5314 7.03151 13.3519 7.00682L13.2499 6.99982ZM3.50191 11.7498C3.50191 12.1638 3.83791 12.4998 4.25191 12.4998H10.2519C10.4508 12.4998 10.6416 12.4208 10.7822 12.2801C10.9229 12.1395 11.0019 11.9487 11.0019 11.7498C11.0019 11.5509 10.9229 11.3601 10.7822 11.2195C10.6416 11.0788 10.4508 10.9998 10.2519 10.9998H4.25191C4.05299 10.9998 3.86223 11.0788 3.72158 11.2195C3.58092 11.3601 3.50191 11.5509 3.50191 11.7498ZM18.0019 13.4998C18.0019 14.1629 17.7385 14.7987 17.2697 15.2676C16.8008 15.7364 16.1649 15.9998 15.5019 15.9998C14.8389 15.9998 14.203 15.7364 13.7341 15.2676C13.2653 14.7987 13.0019 14.1629 13.0019 13.4998C13.0019 12.8368 13.2653 12.2009 13.7341 11.732C14.203 11.2632 14.8389 10.9998 15.5019 10.9998C16.1649 10.9998 16.8008 11.2632 17.2697 11.732C17.7385 12.2009 18.0019 12.8368 18.0019 13.4998ZM20.0019 18.8748C20.0019 20.4308 18.7159 21.9998 15.5019 21.9998C12.2879 21.9998 11.0019 20.4368 11.0019 18.8748V18.7718C11.0019 17.7918 11.7959 16.9998 12.7749 16.9998H18.2289C19.2089 16.9998 20.0019 17.7928 20.0019 18.7718V18.8748Z" fill="white"/>
</svg>
